<?xml version="1.0" encoding="UTF-8"?>
<svg width="700pt" height="700pt" version="1.1" viewBox="0 0 700 700" xmlns="http://www.w3.org/2000/svg" xmlns:xlink="http://www.w3.org/1999/xlink">
 <defs>
  <symbol id="t" overflow="visible">
   <path d="m24.688-1.4688c-1.2734 0.65625-2.6016 1.1523-3.9844 1.4844-1.375 0.33203-2.8125 0.5-4.3125 0.5-4.4805 0-8.0273-1.25-10.641-3.75-2.6172-2.5-3.9219-5.8906-3.9219-10.172 0-4.2891 1.3047-7.6875 3.9219-10.188 2.6133-2.5 6.1602-3.75 10.641-3.75 1.5 0 2.9375 0.16797 4.3125 0.5 1.3828 0.33594 2.7109 0.83594 3.9844 1.5v5.5469c-1.293-0.875-2.5625-1.5156-3.8125-1.9219-1.2422-0.40625-2.5469-0.60938-3.9219-0.60938-2.4805 0-4.4297 0.79297-5.8438 2.375-1.4062 1.5859-2.1094 3.7656-2.1094 6.5469 0 2.7734 0.70312 4.9492 2.1094 6.5312 1.4141 1.5859 3.3633 2.375 5.8438 2.375 1.375 0 2.6797-0.20312 3.9219-0.60938 1.25-0.40625 2.5195-1.0469 3.8125-1.9219z"/>
  </symbol>
  <symbol id="d" overflow="visible">
   <path d="m18.062-14.656c-0.5625-0.26953-1.125-0.46875-1.6875-0.59375-0.55469-0.125-1.1094-0.1875-1.6719-0.1875-1.6562 0-2.9336 0.53125-3.8281 1.5938-0.89844 1.0625-1.3438 2.5859-1.3438 4.5625v9.2812h-6.4375v-20.156h6.4375v3.3125c0.83203-1.3125 1.7852-2.2695 2.8594-2.875 1.0703-0.61328 2.3594-0.92188 3.8594-0.92188 0.20703 0 0.4375 0.011719 0.6875 0.03125 0.25781 0.023437 0.62891 0.0625 1.1094 0.125z"/>
  </symbol>
  <symbol id="a" overflow="visible">
   <path d="m23.203-10.125v1.8281h-15.047c0.15625 1.5117 0.69531 2.6484 1.625 3.4062 0.9375 0.75 2.2422 1.125 3.9219 1.125 1.3516 0 2.7383-0.19531 4.1562-0.59375 1.4258-0.40625 2.8906-1.0156 4.3906-1.8281v4.9688c-1.5234 0.57422-3.043 1.0078-4.5625 1.2969-1.5234 0.28906-3.0469 0.4375-4.5781 0.4375-3.6484 0-6.4805-0.92188-8.5-2.7656-2.0234-1.8516-3.0312-4.457-3.0312-7.8125 0-3.2812 0.98828-5.8633 2.9688-7.75 1.9883-1.8828 4.7227-2.8281 8.2031-2.8281 3.1641 0 5.6953 0.96094 7.5938 2.875 1.9062 1.9062 2.8594 4.4531 2.8594 7.6406zm-6.6094-2.1406c0-1.2266-0.35938-2.2188-1.0781-2.9688-0.71094-0.75-1.6406-1.125-2.7969-1.125-1.25 0-2.2656 0.35547-3.0469 1.0625-0.77344 0.69922-1.2578 1.7109-1.4531 3.0312z"/>
  </symbol>
  <symbol id="c" overflow="visible">
   <path d="m12.125-9.0625c-1.3438 0-2.3555 0.23047-3.0312 0.6875-0.67969 0.44922-1.0156 1.1172-1.0156 2 0 0.82422 0.26953 1.4648 0.8125 1.9219 0.55078 0.46094 1.3125 0.6875 2.2812 0.6875 1.207 0 2.2227-0.42969 3.0469-1.2969 0.83203-0.875 1.25-1.9609 1.25-3.2656v-0.73438zm9.8438-2.4375v11.5h-6.5v-2.9844c-0.86719 1.2188-1.8398 2.1094-2.9219 2.6719-1.0742 0.55078-2.3828 0.82812-3.9219 0.82812-2.0938 0-3.793-0.60156-5.0938-1.8125-1.3047-1.2188-1.9531-2.8008-1.9531-4.75 0-2.3633 0.8125-4.0977 2.4375-5.2031 1.625-1.1016 4.1758-1.6562 7.6562-1.6562h3.7969v-0.5c0-1.0195-0.40234-1.7656-1.2031-2.2344-0.80469-0.47656-2.0586-0.71875-3.7656-0.71875-1.375 0-2.6562 0.14062-3.8438 0.42188-1.1875 0.27344-2.293 0.68359-3.3125 1.2344v-4.9062c1.3828-0.33203 2.7695-0.58594 4.1562-0.76562 1.3945-0.17578 2.7852-0.26562 4.1719-0.26562 3.6328 0 6.2578 0.71875 7.875 2.1562 1.6133 1.4375 2.4219 3.7656 2.4219 6.9844z"/>
  </symbol>
  <symbol id="b" overflow="visible">
   <path d="m10.125-25.875v5.7188h6.6406v4.6094h-6.6406v8.5469c0 0.9375 0.1875 1.5742 0.5625 1.9062 0.375 0.32422 1.1133 0.48438 2.2188 0.48438h3.2969v4.6094h-5.5156c-2.543 0-4.3438-0.53125-5.4062-1.5938s-1.5938-2.8633-1.5938-5.4062v-8.5469h-3.2031v-4.6094h3.2031v-5.7188z"/>
  </symbol>
  <symbol id="h" overflow="visible">
   <path d="m16.797-17.203v-10.797h6.4844v28h-6.4844v-2.9219c-0.88672 1.1875-1.8672 2.0586-2.9375 2.6094-1.0625 0.55078-2.293 0.82812-3.6875 0.82812-2.4922 0-4.5312-0.98438-6.125-2.9531s-2.3906-4.5078-2.3906-7.625c0-3.1016 0.79688-5.6406 2.3906-7.6094 1.5938-1.9766 3.6328-2.9688 6.125-2.9688 1.3828 0 2.6133 0.28125 3.6875 0.84375 1.0703 0.55469 2.0508 1.418 2.9375 2.5938zm-4.2344 13.047c1.375 0 2.4219-0.5 3.1406-1.5 0.72656-1.0078 1.0938-2.4766 1.0938-4.4062 0-1.9141-0.36719-3.375-1.0938-4.375-0.71875-1.0078-1.7656-1.5156-3.1406-1.5156s-2.4297 0.50781-3.1562 1.5156c-0.71875 1-1.0781 2.4609-1.0781 4.375 0 1.9297 0.35938 3.3984 1.0781 4.4062 0.72656 1 1.7812 1.5 3.1562 1.5z"/>
  </symbol>
  <symbol id="j" overflow="visible">
   <path d="m13.812-4.1562c1.3828 0 2.4375-0.5 3.1562-1.5 0.72656-1.0078 1.0938-2.4766 1.0938-4.4062 0-1.9141-0.36719-3.375-1.0938-4.375-0.71875-1.0078-1.7734-1.5156-3.1562-1.5156-1.375 0-2.4336 0.50781-3.1719 1.5156-0.74219 1.0117-1.1094 2.4688-1.1094 4.375s0.36719 3.3711 1.1094 4.3906c0.73828 1.0117 1.7969 1.5156 3.1719 1.5156zm-4.2812-13.047c0.88281-1.1758 1.8672-2.0391 2.9531-2.5938 1.082-0.5625 2.3203-0.84375 3.7188-0.84375 2.4883 0 4.5312 0.99219 6.125 2.9688 1.5938 1.9688 2.3906 4.5078 2.3906 7.6094 0 3.1172-0.79688 5.6562-2.3906 7.625s-3.6367 2.9531-6.125 2.9531c-1.3984 0-2.6367-0.27734-3.7188-0.82812-1.0859-0.5625-2.0703-1.4297-2.9531-2.6094v2.9219h-6.4375v-28h6.4375z"/>
  </symbol>
  <symbol id="i" overflow="visible">
   <path d="m0.45312-20.156h6.4375l5.4219 13.688 4.5938-13.688h6.4375l-8.4688 22.062c-0.85547 2.2383-1.8516 3.8047-2.9844 4.7031-1.125 0.89453-2.6211 1.3438-4.4844 1.3438h-3.7188v-4.2344h2.0156c1.0938 0 1.8828-0.17188 2.375-0.51562 0.5-0.34375 0.89062-0.96875 1.1719-1.875l0.17188-0.54688z"/>
  </symbol>
  <symbol id="g" overflow="visible">
   <path d="m3.375-26.859h11.5c3.4141 0 6.0352 0.76172 7.8594 2.2812 1.832 1.5117 2.75 3.6719 2.75 6.4844s-0.91797 4.9805-2.75 6.5c-1.8242 1.5234-4.4453 2.2812-7.8594 2.2812h-4.5625v9.3125h-6.9375zm6.9375 5.0156v7.5h3.8281c1.3438 0 2.3789-0.32031 3.1094-0.96875 0.72656-0.65625 1.0938-1.582 1.0938-2.7812 0-1.1953-0.36719-2.1172-1.0938-2.7656-0.73047-0.65625-1.7656-0.98438-3.1094-0.98438z"/>
  </symbol>
  <symbol id="f" overflow="visible">
   <path d="m21.766-16.797c0.8125-1.25 1.7812-2.2031 2.9062-2.8594s2.3594-0.98438 3.7031-0.98438c2.3125 0 4.0703 0.71484 5.2812 2.1406 1.207 1.4297 1.8125 3.5078 1.8125 6.2344v12.266h-6.4688v-10.5c0.007812-0.15625 0.015625-0.31641 0.015625-0.48438 0.007813-0.17578 0.015625-0.42188 0.015625-0.73438 0-1.4258-0.21094-2.457-0.625-3.0938-0.41797-0.64453-1.0938-0.96875-2.0312-0.96875-1.2305 0-2.1797 0.50781-2.8438 1.5156-0.65625 1.0117-1 2.4688-1.0312 4.375v9.8906h-6.4688v-10.5c0-2.2383-0.19531-3.6758-0.57812-4.3125-0.38672-0.64453-1.0703-0.96875-2.0469-0.96875-1.2422 0-2.1992 0.51172-2.875 1.5312-0.66797 1.0117-1 2.4609-1 4.3438v9.9062h-6.4688v-20.156h6.4688v2.9531c0.78906-1.1328 1.6953-1.9883 2.7188-2.5625 1.0312-0.58203 2.1641-0.875 3.4062-0.875 1.3828 0 2.6094 0.33984 3.6719 1.0156 1.0703 0.66797 1.8828 1.6094 2.4375 2.8281z"/>
  </symbol>
  <symbol id="s" overflow="visible">
   <path d="m27.531-2c-1.7305 0.84375-3.5273 1.4766-5.3906 1.8906-1.8555 0.41406-3.7734 0.625-5.75 0.625-4.4805 0-8.0273-1.25-10.641-3.75-2.6172-2.5-3.9219-5.8906-3.9219-10.172 0-4.3203 1.332-7.7227 4-10.203 2.6641-2.4883 6.3125-3.7344 10.938-3.7344 1.7891 0 3.5039 0.16797 5.1406 0.5 1.6328 0.33594 3.1758 0.83594 4.625 1.5v5.5469c-1.5-0.84375-2.9922-1.4727-4.4688-1.8906-1.4805-0.42578-2.9648-0.64062-4.4531-0.64062-2.7617 0-4.8867 0.77344-6.375 2.3125-1.4922 1.543-2.2344 3.7461-2.2344 6.6094 0 2.8438 0.71875 5.043 2.1562 6.5938 1.4375 1.543 3.4766 2.3125 6.125 2.3125 0.72656 0 1.3984-0.039062 2.0156-0.125 0.61328-0.09375 1.1641-0.23828 1.6562-0.4375v-5.2031h-4.2188v-4.6406h10.797z"/>
  </symbol>
  <symbol id="r" overflow="visible">
   <path d="m18.828-19.516v4.8906c-1.375-0.57031-2.7031-1.0039-3.9844-1.2969-1.2812-0.28906-2.4961-0.4375-3.6406-0.4375-1.2188 0-2.125 0.15625-2.7188 0.46875-0.59375 0.30469-0.89062 0.77344-0.89062 1.4062 0 0.52344 0.22266 0.92188 0.67188 1.2031 0.44531 0.27344 1.2539 0.46875 2.4219 0.59375l1.125 0.17188c3.3008 0.41797 5.5195 1.1055 6.6562 2.0625 1.1445 0.96094 1.7188 2.4648 1.7188 4.5156 0 2.1484-0.79297 3.7617-2.375 4.8438-1.5859 1.0742-3.9492 1.6094-7.0938 1.6094-1.3359 0-2.7109-0.10547-4.125-0.3125-1.418-0.20703-2.875-0.51953-4.375-0.9375v-4.8906c1.2812 0.61719 2.5938 1.0781 3.9375 1.3906 1.3516 0.3125 2.7227 0.46875 4.1094 0.46875 1.2578 0 2.207-0.17188 2.8438-0.51562 0.63281-0.34375 0.95312-0.85938 0.95312-1.5469 0-0.57031-0.21875-1-0.65625-1.2812s-1.3086-0.5-2.6094-0.65625l-1.1406-0.15625c-2.8672-0.35156-4.875-1.0156-6.0312-1.9844-1.1484-0.97656-1.7188-2.457-1.7188-4.4375 0-2.1328 0.72656-3.7188 2.1875-4.75 1.4688-1.0312 3.7109-1.5469 6.7344-1.5469 1.1875 0 2.4297 0.09375 3.7344 0.28125 1.3125 0.17969 2.7344 0.46094 4.2656 0.84375z"/>
  </symbol>
  <symbol id="q" overflow="visible">
   <path d="m16.359-28v4.2344h-3.5625c-0.91797 0-1.5586 0.16797-1.9219 0.5-0.35547 0.32422-0.53125 0.89844-0.53125 1.7188v1.3906h5.5v4.6094h-5.5v15.547h-6.4375v-15.547h-3.2031v-4.6094h3.2031v-1.3906c0-2.1953 0.60938-3.8203 1.8281-4.875 1.2266-1.0508 3.125-1.5781 5.6875-1.5781z"/>
  </symbol>
  <symbol id="e" overflow="visible">
   <path d="m12.688-16.031c-1.4297 0-2.5156 0.51562-3.2656 1.5469-0.75 1.0234-1.125 2.4961-1.125 4.4219 0 1.9375 0.375 3.4219 1.125 4.4531 0.75 1.0234 1.8359 1.5312 3.2656 1.5312 1.3945 0 2.4609-0.50781 3.2031-1.5312 0.75-1.0312 1.125-2.5156 1.125-4.4531 0-1.9258-0.375-3.3984-1.125-4.4219-0.74219-1.0312-1.8086-1.5469-3.2031-1.5469zm0-4.6094c3.457 0 6.1602 0.9375 8.1094 2.8125 1.957 1.875 2.9375 4.4648 2.9375 7.7656 0 3.3125-0.98047 5.9062-2.9375 7.7812-1.9492 1.8672-4.6523 2.7969-8.1094 2.7969-3.4805 0-6.2031-0.92969-8.1719-2.7969-1.9609-1.875-2.9375-4.4688-2.9375-7.7812 0-3.3008 0.97656-5.8906 2.9375-7.7656 1.9688-1.875 4.6914-2.8125 8.1719-2.8125z"/>
  </symbol>
  <symbol id="p" overflow="visible">
   <path d="m23.344-12.266v12.266h-6.4688v-9.3594c0-1.7578-0.042969-2.9688-0.125-3.625-0.074219-0.66406-0.20312-1.1562-0.39062-1.4688-0.26172-0.41406-0.60547-0.73828-1.0312-0.96875-0.42969-0.23828-0.91797-0.35938-1.4688-0.35938-1.3438 0-2.4023 0.52344-3.1719 1.5625-0.77344 1.0312-1.1562 2.4688-1.1562 4.3125v9.9062h-6.4375v-28h6.4375v10.797c0.96875-1.1758 2-2.0391 3.0938-2.5938 1.0938-0.5625 2.3008-0.84375 3.625-0.84375 2.3203 0 4.082 0.71484 5.2812 2.1406 1.207 1.4297 1.8125 3.5078 1.8125 6.2344z"/>
  </symbol>
  <symbol id="o" overflow="visible">
   <path d="m3.375-26.859h7.75l9.7656 18.422v-18.422h6.5625v26.859h-7.7344l-9.7656-18.422v18.422h-6.5781z"/>
  </symbol>
  <symbol id="n" overflow="visible">
   <path d="m2.875-7.8438v-12.312h6.4844v2.0156c0 1.0938-0.011719 2.4688-0.03125 4.125-0.011719 1.6484-0.015625 2.7461-0.015625 3.2969 0 1.6172 0.039062 2.7812 0.125 3.5 0.09375 0.71094 0.23828 1.2266 0.4375 1.5469 0.25781 0.42969 0.60156 0.75781 1.0312 0.98438 0.42578 0.21875 0.91406 0.32812 1.4688 0.32812 1.3438 0 2.3945-0.51562 3.1562-1.5469 0.76953-1.0312 1.1562-2.4609 1.1562-4.2969v-9.9531h6.4531v20.156h-6.4531v-2.9219c-0.96875 1.1797-1.9961 2.0469-3.0781 2.6094-1.0859 0.55078-2.2812 0.82812-3.5938 0.82812-2.3242 0-4.0938-0.71094-5.3125-2.1406-1.2188-1.4258-1.8281-3.5-1.8281-6.2188z"/>
  </symbol>
  <symbol id="m" overflow="visible">
   <path d="m23.344-12.266v12.266h-6.4688v-9.3906c0-1.7383-0.042969-2.9375-0.125-3.5938-0.074219-0.66406-0.20312-1.1562-0.39062-1.4688-0.26172-0.41406-0.60547-0.73828-1.0312-0.96875-0.42969-0.23828-0.91797-0.35938-1.4688-0.35938-1.3438 0-2.4023 0.52344-3.1719 1.5625-0.77344 1.0312-1.1562 2.4688-1.1562 4.3125v9.9062h-6.4375v-20.156h6.4375v2.9531c0.96875-1.1758 2-2.0391 3.0938-2.5938 1.0938-0.5625 2.3008-0.84375 3.625-0.84375 2.3203 0 4.082 0.71484 5.2812 2.1406 1.207 1.4297 1.8125 3.5078 1.8125 6.2344z"/>
  </symbol>
  <symbol id="l" overflow="visible">
   <path d="m3.0938-20.156h6.4375v19.797c0 2.6953-0.64844 4.7539-1.9375 6.1719-1.293 1.4258-3.1719 2.1406-5.6406 2.1406h-3.1719v-4.2344h1.1094c1.2266 0 2.0664-0.27734 2.5156-0.82812 0.45703-0.55469 0.6875-1.6367 0.6875-3.25zm0-7.8438h6.4375v5.2656h-6.4375z"/>
  </symbol>
  <symbol id="k" overflow="visible">
   <path d="m19.375-19.516v5.25c-0.875-0.60156-1.7578-1.0469-2.6406-1.3281-0.875-0.28906-1.7891-0.4375-2.7344-0.4375-1.8047 0-3.2031 0.52734-4.2031 1.5781-1 1.0547-1.5 2.5156-1.5 4.3906 0 1.8867 0.5 3.3555 1.5 4.4062 1 1.0547 2.3984 1.5781 4.2031 1.5781 1 0 1.9531-0.14844 2.8594-0.45312 0.90625-0.30078 1.7422-0.74219 2.5156-1.3281v5.2656c-1.0117 0.375-2.0391 0.64844-3.0781 0.82812-1.0312 0.1875-2.0703 0.28125-3.1094 0.28125-3.6367 0-6.4805-0.92969-8.5312-2.7969-2.0547-1.8633-3.0781-4.457-3.0781-7.7812 0-3.3203 1.0234-5.9141 3.0781-7.7812 2.0508-1.8633 4.8945-2.7969 8.5312-2.7969 1.0508 0 2.0859 0.09375 3.1094 0.28125 1.0312 0.1875 2.0547 0.46875 3.0781 0.84375z"/>
  </symbol>
 </defs>
 <g>
  <path d="m143.07 280.71c0-4.0664 3.293-7.3672 7.3672-7.3672h382.69l-107.74-129.94c-2.5938-3.125-2.1719-7.7812 0.97266-10.375 3.1328-2.5938 7.7812-2.1602 10.375 0.97266 0 0 118.81 142.11 119.51 143.6 0.53125 1.1328 0.75781 2.3672 0.67969 3.5664 0.14844 1.8711-0.46484 3.7148-1.7227 5.2109l-117.89 139.68c-2.625 3.1094-7.2656 3.5078-10.375 0.89062-3.1172-2.6172-3.5234-7.25-0.90625-10.375l107.75-128.5-383.33-0.003906c-4.0664 0-7.3672-3.293-7.3672-7.3672z"/>
  <use x="70" y="670.527344" xlink:href="#t"/>
  <use x="97.039062" y="670.527344" xlink:href="#d"/>
  <use x="115.207031" y="670.527344" xlink:href="#a"/>
  <use x="140.195312" y="670.527344" xlink:href="#c"/>
  <use x="165.054688" y="670.527344" xlink:href="#b"/>
  <use x="182.667969" y="670.527344" xlink:href="#a"/>
  <use x="207.652344" y="670.527344" xlink:href="#h"/>
  <use x="246.851562" y="670.527344" xlink:href="#j"/>
  <use x="273.226562" y="670.527344" xlink:href="#i"/>
  <use x="310.066406" y="670.527344" xlink:href="#g"/>
  <use x="337.070312" y="670.527344" xlink:href="#a"/>
  <use x="362.054687" y="670.527344" xlink:href="#d"/>
  <use x="380.226562" y="670.527344" xlink:href="#c"/>
  <use x="405.085937" y="670.527344" xlink:href="#f"/>
  <use x="443.476562" y="670.527344" xlink:href="#a"/>
  <use x="468.464844" y="670.527344" xlink:href="#b"/>
  <use x="486.074219" y="670.527344" xlink:href="#c"/>
  <use x="510.9375" y="670.527344" xlink:href="#h"/>
  <use x="537.308594" y="670.527344" xlink:href="#a"/>
  <use x="575.121094" y="670.527344" xlink:href="#s"/>
  <use x="605.363281" y="670.527344" xlink:href="#c"/>
  <use x="630.222656" y="670.527344" xlink:href="#f"/>
  <use x="668.613281" y="670.527344" xlink:href="#a"/>
  <use x="693.597656" y="670.527344" xlink:href="#r"/>
  <use x="70" y="707.367187" xlink:href="#q"/>
  <use x="86.027344" y="707.367187" xlink:href="#d"/>
  <use x="104.199219" y="707.367187" xlink:href="#e"/>
  <use x="129.507812" y="707.367187" xlink:href="#f"/>
  <use x="180.722656" y="707.367187" xlink:href="#b"/>
  <use x="198.335938" y="707.367187" xlink:href="#p"/>
  <use x="224.5625" y="707.367187" xlink:href="#a"/>
  <use x="262.378906" y="707.367187" xlink:href="#o"/>
  <use x="293.210937" y="707.367187" xlink:href="#e"/>
  <use x="318.523438" y="707.367187" xlink:href="#n"/>
  <use x="344.75" y="707.367187" xlink:href="#m"/>
  <use x="383.804687" y="707.367187" xlink:href="#g"/>
  <use x="410.808594" y="707.367187" xlink:href="#d"/>
  <use x="428.976562" y="707.367187" xlink:href="#e"/>
  <use x="454.289062" y="707.367187" xlink:href="#l"/>
  <use x="466.917969" y="707.367187" xlink:href="#a"/>
  <use x="491.902344" y="707.367187" xlink:href="#k"/>
  <use x="513.742188" y="707.367187" xlink:href="#b"/>
 </g>
</svg>
